<svg xmlns="http://www.w3.org/2000/svg" viewBox="0 0 256 256" role="img" aria-label="Othello pattern icon">
  <rect width="256" height="256" fill="#111111"/>
  <g fill="#f5f5f5">
    <rect x="0" y="0" width="32" height="32"/>
    <rect x="64" y="0" width="32" height="32"/>
    <rect x="128" y="0" width="32" height="32"/>
    <rect x="192" y="0" width="32" height="32"/>
    <rect x="32" y="32" width="32" height="32"/>
    <rect x="96" y="32" width="32" height="32"/>
    <rect x="160" y="32" width="32" height="32"/>
    <rect x="224" y="32" width="32" height="32"/>
    <rect x="0" y="64" width="32" height="32"/>
    <rect x="64" y="64" width="32" height="32"/>
    <rect x="128" y="64" width="32" height="32"/>
    <rect x="192" y="64" width="32" height="32"/>
    <rect x="32" y="96" width="32" height="32"/>
    <rect x="96" y="96" width="32" height="32"/>
    <rect x="160" y="96" width="32" height="32"/>
    <rect x="224" y="96" width="32" height="32"/>
    <rect x="0" y="128" width="32" height="32"/>
    <rect x="64" y="128" width="32" height="32"/>
    <rect x="128" y="128" width="32" height="32"/>
    <rect x="192" y="128" width="32" height="32"/>
    <rect x="32" y="160" width="32" height="32"/>
    <rect x="96" y="160" width="32" height="32"/>
    <rect x="160" y="160" width="32" height="32"/>
    <rect x="224" y="160" width="32" height="32"/>
    <rect x="0" y="192" width="32" height="32"/>
    <rect x="64" y="192" width="32" height="32"/>
    <rect x="128" y="192" width="32" height="32"/>
    <rect x="192" y="192" width="32" height="32"/>
    <rect x="32" y="224" width="32" height="32"/>
    <rect x="96" y="224" width="32" height="32"/>
    <rect x="160" y="224" width="32" height="32"/>
    <rect x="224" y="224" width="32" height="32"/>
  </g>
</svg>
